<svg id="Layer_1" data-name="Layer 1" xmlns="http://www.w3.org/2000/svg" viewBox="0 0 300 300"><defs><style>.cls-1{fill:#4d4d4d;}.cls-2{fill:#e4c97e;}</style></defs><rect class="cls-1" x="71" y="216" width="160" height="3"/><path class="cls-1" d="M59.77,236.31H66.2l15.22,35.86H75.19l-4.25-10.74H54.34L49.8,272.17H44Zm9.34,21.16-6.37-15.84L56,257.47Z"/><path class="cls-1" d="M90,236.31h18.14q7.41,0,10.55,3.76a7.78,7.78,0,0,1,1.84,5.12,7.4,7.4,0,0,1-2.25,5.57,11.43,11.43,0,0,1-3.38,2.1,14.82,14.82,0,0,1,4.83,2.37,7.93,7.93,0,0,1,2.83,6.47A9.06,9.06,0,0,1,120,268q-3.83,4.2-12.15,4.2H90Zm16,15.16a14.89,14.89,0,0,0,5.65-.86,4.83,4.83,0,0,0,3.18-4.83,4.66,4.66,0,0,0-3.38-4.74,17.94,17.94,0,0,0-5.66-.68H95.59v11.11ZM108,268c3.52,0,6-.86,7.52-2.59a5.86,5.86,0,0,0,1.42-3.95c0-2.61-1.38-4.38-4.13-5.33a18.32,18.32,0,0,0-5.79-.75H95.59V268Z"/><path class="cls-1" d="M167.31,241.43q4.17,4.77,4.17,12.19A19.26,19.26,0,0,1,166.71,267q-5.6,6.25-16,6.25-9.68,0-15.22-5.47a18.69,18.69,0,0,1-4.94-13.33A19.09,19.09,0,0,1,134.8,242q5.43-6.65,16.06-6.64Q162,235.33,167.31,241.43Zm-5,22.86a17.56,17.56,0,0,0,3.35-10.59,13.75,13.75,0,0,0-3.87-10.19q-3.87-3.85-10.58-3.86a15,15,0,0,0-10.63,3.82q-4.11,3.83-4.11,11.28A14.88,14.88,0,0,0,140,264.81q3.52,4.08,11.44,4.09Q158.95,268.9,162.3,264.29Z"/><path class="cls-1" d="M188,236.31v22.16a11.48,11.48,0,0,0,1.73,6.5q2.56,3.9,8.64,3.9,7.28,0,9.9-4.22a11.73,11.73,0,0,0,1.41-6.18V236.31h5.74v20.14q0,6.62-2.09,10.18-3.84,6.5-14.5,6.49t-14.48-6.49q-2.09-3.57-2.09-10.18V236.31Z"/><path class="cls-1" d="M258.14,236.31v4.27H244v31.59h-5.74V240.58H224.12v-4.27Z"/><circle class="cls-1" cx="150" cy="101" r="99.5"/><circle class="cls-2" cx="150" cy="101" r="95"/></svg>
