<svg id="Layer_1" data-name="Layer 1" xmlns="http://www.w3.org/2000/svg" viewBox="0 0 300 300"><defs><style>.cls-1{fill:#4d4d4d;}.cls-2{fill:#3d57ba;}</style></defs><rect class="cls-1" x="63" y="216" width="160" height="3"/><path class="cls-1" d="M33.13,241.92q4.35,3.59,4.83,8.15H32.42a9.71,9.71,0,0,0-3.69-5.49c-1.84-1.35-4.43-2-7.75-2a13.33,13.33,0,0,0-9.84,3.73Q7.41,250,7.4,257.7c0,4.21,1.12,7.61,3.38,10.23s5.62,3.92,10.09,3.92q6.16,0,9.4-4.13A14.5,14.5,0,0,0,32.82,262h5.54a15.3,15.3,0,0,1-4.85,9.5q-4.95,4.61-13.33,4.61A19.3,19.3,0,0,1,8,272.34q-6.46-5-6.47-15.47a18.07,18.07,0,0,1,4.86-13q5.25-5.52,14.48-5.52Q28.79,238.33,33.13,241.92Z"/><path class="cls-1" d="M83.83,244.43Q88,249.2,88,256.62A19.26,19.26,0,0,1,83.23,270q-5.6,6.25-16,6.25-9.69,0-15.23-5.47a18.74,18.74,0,0,1-4.94-13.33A19,19,0,0,1,51.33,245q5.43-6.65,16-6.64Q78.5,238.33,83.83,244.43Zm-5,22.86a17.5,17.5,0,0,0,3.36-10.59,13.75,13.75,0,0,0-3.87-10.19q-3.87-3.85-10.59-3.86a15,15,0,0,0-10.62,3.82Q53,250.3,53,257.75a14.88,14.88,0,0,0,3.53,10.06Q60,271.89,68,271.9,75.46,271.9,78.82,267.29Z"/><path class="cls-1" d="M98.34,239.31H105l20.92,29v-29h5.43v35.86H125l-21.24-28.94v28.94H98.34Z"/><path class="cls-1" d="M174.67,239.31v4.27H160.53v31.59h-5.75V243.58H140.65v-4.27Z"/><path class="cls-1" d="M191.34,239.31h6.43L213,275.17h-6.23l-4.26-10.74H185.92l-4.54,10.74h-5.83Zm9.35,21.16-6.37-15.84-6.77,15.84Z"/><path class="cls-1" d="M251.41,241.92q4.35,3.59,4.83,8.15H250.7a9.71,9.71,0,0,0-3.69-5.49q-2.76-2-7.76-2a13.32,13.32,0,0,0-9.83,3.73q-3.73,3.72-3.74,11.42c0,4.21,1.12,7.61,3.38,10.23s5.62,3.92,10.09,3.92q6.16,0,9.4-4.13A14.5,14.5,0,0,0,251.1,262h5.54a15.3,15.3,0,0,1-4.85,9.5q-4.95,4.61-13.33,4.61a19.3,19.3,0,0,1-12.14-3.78q-6.47-5-6.47-15.47a18.07,18.07,0,0,1,4.86-13q5.25-5.52,14.48-5.52Q247.07,238.33,251.41,241.92Z"/><path class="cls-1" d="M298.06,239.31v4.27H283.92v31.59h-5.74V243.58H264v-4.27Z"/><polygon class="cls-1" points="143.69 200.13 44.19 200.13 93.94 100.13 143.69 0.13 193.44 100.13 243.19 200.13 143.69 200.13"/><polygon class="cls-2" points="143.5 195.5 51 195.5 97.25 103 143.5 10.5 189.75 103 236 195.5 143.5 195.5"/></svg>
