<svg id="Layer_1" data-name="Layer 1" xmlns="http://www.w3.org/2000/svg" viewBox="0 0 300 300"><defs><style>.cls-1{fill:#4d4d4d;}.cls-2{fill:#e1a5b3;}</style></defs><rect class="cls-1" x="50" y="1" width="200" height="200"/><rect class="cls-2" x="55" y="6" width="190" height="190"/><rect class="cls-1" x="70" y="219" width="160" height="3"/><path class="cls-1" d="M60.9,239.31l7.91,29.13,9.48-29.13h6.15l9.5,29.19,7.91-29.19h6.23l-11,35.86h-6l-9.68-29.74-9.74,29.74h-6l-11-35.86Z"/><path class="cls-1" d="M151.46,244.43q4.17,4.77,4.17,12.19A19.26,19.26,0,0,1,150.86,270q-5.61,6.25-16,6.25-9.69,0-15.22-5.47a18.7,18.7,0,0,1-5-13.33A19,19,0,0,1,119,245q5.43-6.65,16-6.64Q146.12,238.33,151.46,244.43Zm-5,22.86a17.5,17.5,0,0,0,3.36-10.59,13.75,13.75,0,0,0-3.87-10.19q-3.87-3.85-10.58-3.86a15,15,0,0,0-10.63,3.82q-4.11,3.83-4.11,11.28a14.83,14.83,0,0,0,3.53,10.06q3.52,4.08,11.44,4.09C140.58,271.9,144.21,270.36,146.44,267.29Z"/><path class="cls-1" d="M166.65,239.31h19.08a21.64,21.64,0,0,1,7.76,1.19,9.27,9.27,0,0,1,4.25,13.75,10.89,10.89,0,0,1-4.35,3.29,8.65,8.65,0,0,1,3.7,2.25,7.18,7.18,0,0,1,1.38,4.52l.2,4.81a12.93,12.93,0,0,0,.4,3.05,3.07,3.07,0,0,0,1.83,2.19v.81h-7a4.24,4.24,0,0,1-.46-1.2,19.51,19.51,0,0,1-.28-2.83l-.34-6a5,5,0,0,0-3-4.71,13.82,13.82,0,0,0-5-.66H172.34v15.38h-5.69Zm18.46,16.43a11.89,11.89,0,0,0,6.16-1.37c1.51-.91,2.26-2.56,2.26-4.93a5.18,5.18,0,0,0-3.17-5.23,11.53,11.53,0,0,0-4.52-.73h-13.5v12.26Z"/><path class="cls-1" d="M211.78,239.31h5.54v17.55l21-17.55h7.94l-17.93,14.47,18.3,21.39H239.2l-15-18-6.84,5.52v12.5h-5.54Z"/></svg>
